Simulation
nRows=49
nColumns=15
endheader
time  TH_x TH_y TH_z SC_y  SC_z  SC_x  AC_y  AC_z  AC_x  GH_y  GH_z  GH_yy  EL_x  PS_y
0.0  0.000000  0.000000  0.000000  -29.079297827005544  1.6183248648318842  18.103990430489894  58.48221170250245  8.99386710603939  -0.4477750106810954  55.503197714255904  48.198540405674635  -53.865219815737774  23.94426887550234  0.000000
0.04  0.000000  0.000000  0.000000  -29.082115324850175  1.8112178996305033  18.8072456424634  57.553559756973264  9.034156136845855  0.41673346925633326  54.83903200203772  49.389089965533685  -53.15263420788066  24.379577849113904  0.000000
0.08  0.000000  0.000000  0.000000  -28.818538189321597  2.01592666001121  19.164074846157266  57.094919531207076  8.722366118687287  0.8681047968520494  54.32665854159089  49.93121959008111  -52.30097973437641  24.599856525955865  0.000000
0.12  0.000000  0.000000  0.000000  -28.714986707923906  2.0704295354034468  19.303491812630124  57.02946834634712  8.541969824183964  1.0291317211718332  54.055041061738756  50.123334483944085  -51.57683168628984  24.703703836655524  0.000000
0.16  0.000000  0.000000  0.000000  -28.57827731727997  2.2054467058733795  19.319883298497512  56.9069350863445  8.397770578264822  1.1572085286247513  53.73950445739065  50.19167205813804  -50.50168941003342  24.701980772821482  0.000000
0.2  0.000000  0.000000  0.000000  -28.520524581752486  2.2905838279305004  19.280196782041916  56.79690210618121  8.352362148346606  1.3116392268802863  53.27825882555753  50.28214352704361  -49.13073500007259  24.629355665553767  0.000000
0.24  0.000000  0.000000  0.000000  -28.46562880425984  2.4541839645767554  19.199984039742375  56.62817406393646  8.361410804804079  1.5483855549676242  52.59503097983711  50.49350058499218  -47.317072081745955  24.542307497752407  0.000000
0.28  0.000000  0.000000  0.000000  -28.459707320798213  2.6340664495600965  19.068340312144546  56.44040002208191  8.406493495593617  1.909967243462538  51.72417967214257  50.899260322059206  -45.09112558126788  24.500589115910913  0.000000
0.32  0.000000  0.000000  0.000000  -28.47299975951081  2.8896967194153116  18.87698394401359  56.262585271500264  8.512278726118716  2.395672924233609  50.76014162521728  51.526268143951  -42.561893174633  24.54813598706392  0.000000
0.36  0.000000  0.000000  0.000000  -28.52328409250337  3.1832897024051685  18.61530986171974  56.090078561638265  8.646493400379185  3.0566795141104866  49.80580347194042  52.38525631301207  -39.83876439200494  24.66928896716449  0.000000
0.4  0.000000  0.000000  0.000000  -28.589539715402967  3.5337950700559935  18.27931170281222  55.934411462588805  8.862047786720636  3.888962613104107  48.973616243701635  53.42068350109787  -37.14331293872821  24.85158117548033  0.000000
0.44  0.000000  0.000000  0.000000  -28.683241710156643  3.9118898011811036  17.859070705571106  55.77014636555987  9.146472631419964  4.927012050917866  48.344742175345324  54.59993054476861  -34.55098320142434  25.059379958577992  0.000000
0.48  0.000000  0.000000  0.000000  -28.798037768740322  4.308088473174899  17.346404578296784  55.61314044179831  9.55714793990576  6.166191401679501  47.98681965319304  55.844985703677835  -32.22155788773619  25.26409705288288  0.000000
0.52  0.000000  0.000000  0.000000  -28.954047660220198  4.690514049745456  16.749966203931187  55.465422485580085  10.091909030447543  7.610900705019665  47.94550773854003  57.11166214134431  -30.138180461722587  25.415712980150595  0.000000
0.56  0.000000  0.000000  0.000000  -29.148411969490247  5.034068956509078  16.083658145671816  55.347728727548954  10.763153221733639  9.234634720651936  48.235023557688585  58.33605714220993  -28.33714423482103  25.48890547692279  0.000000
0.6  0.000000  0.000000  0.000000  -29.391807842940096  5.320812570549543  15.37628101630996  55.270336569852255  11.560045244067885  10.997497205280878  48.856521647036445  59.47412375238644  -26.764725252123313  25.451789164590824  0.000000
0.64  0.000000  0.000000  0.000000  -29.663279535801458  5.5434294566862725  14.647211241808556  55.218130708425505  12.43460090404111  12.85942659507453  49.78346859197322  60.479085688652575  -25.431848615004856  25.292845190761113  0.000000
0.68  0.000000  0.000000  0.000000  -29.93543930527216  5.69921668579856  13.921874065900775  55.182006806661576  13.364261842680406  14.749138572746268  50.97465043856078  61.327305121724976  -24.30356229437112  25.00462447301132  0.000000
0.72  0.000000  0.000000  0.000000  -30.18560256898757  5.800132199342096  13.208482490373179  55.14101748571288  14.281263910962085  16.627364851481982  52.38019055013852  62.011072130869955  -23.363234747591388  24.600103133929192  0.000000
0.76  0.000000  0.000000  0.000000  -30.39967990662965  5.865619890639448  12.535557306189926  55.1034667016024  15.159359266339244  18.41935043454653  53.92663842010349  62.53638000810301  -22.59182953241368  24.113558203560697  0.000000
0.8  0.000000  0.000000  0.000000  -30.553370636080672  5.916725923289748  11.901030797759786  55.05130274796864  15.93832611121781  20.09454613011588  55.546635670780034  62.92218753768037  -21.970286804470522  23.59012758873216  0.000000
0.84  0.000000  0.000000  0.000000  -30.638122847138796  5.980051453607447  11.317561425830101  54.99015751541671  16.602673272006697  21.60324756933092  57.16200130876859  63.19088178354485  -21.49544971576268  23.06673886558655  0.000000
0.88  0.000000  0.000000  0.000000  -30.648474748926212  6.058907694253734  10.781484389630101  54.9086658052328  17.137556243157377  22.910752393897614  58.704914545267314  63.3773603065198  -21.11828405938995  22.565974774062536  0.000000
0.92  0.000000  0.000000  0.000000  -30.60176792100528  6.136160677066648  10.312038758698385  54.823960293801896  17.55700335934869  23.976101581760815  60.10475452324707  63.507719451652505  -20.79739712545289  22.06503422335385  0.000000
0.96  0.000000  0.000000  0.000000  -30.51278945048919  6.195353684739383  9.913924114775606  54.734850445948524  17.871022007519397  24.772443831157517  61.30594581572515  63.61126021642023  -20.4716303685927  21.548664806826302  0.000000
1.0  0.000000  0.000000  0.000000  -30.410807025591318  6.22408391770153  9.603509966934725  54.65380464316034  18.093767072342438  25.282333076116398  62.25992199652449  63.7029300262016  -20.127934696821622  21.00978968357528  0.000000
1.04  0.000000  0.000000  0.000000  -30.30243496146862  6.222174210411706  9.380248712861748  54.57651934792515  18.228759808026123  25.508843075872786  62.92583354978528  63.78727987150176  -19.789633727104917  20.4815987152005  0.000000
1.08  0.000000  0.000000  0.000000  -30.20109266709086  6.1990573852064665  9.249505092202694  54.50802626271076  18.2763017273568  25.46890349325135  63.2761356915688  63.854442913107995  -19.535454710422524  20.016085055466455  0.000000
1.12  0.000000  0.000000  0.000000  -30.10712705386329  6.161362543912329  9.20894082582543  54.445119567635246  18.236415527265137  25.18573075327013  63.31114752096668  63.88653216041198  -19.453487638738654  19.664973759224583  0.000000
1.16  0.000000  0.000000  0.000000  -30.02932617222707  6.123167448424152  9.261166858959886  54.3916408435244  18.10703606009864  24.68746694103236  63.059140167172394  63.86443252927862  -19.628606820360215  19.448371583518696  0.000000
1.2  0.000000  0.000000  0.000000  -29.96459417060392  6.091606455802839  9.405959435502917  54.34615279945763  17.88448438466879  24.001133317526925  62.57769461830211  63.76501672408869  -20.128670559298378  19.35695614705026  0.000000
1.24  0.000000  0.000000  0.000000  -29.92235828996393  6.081377733573542  9.646690073842953  54.31141252650016  17.565661635444314  23.1559772900676  61.9419165135495  63.56465235195652  -21.01047304864816  19.3652801898371  0.000000
1.28  0.000000  0.000000  0.000000  -29.903496498400276  6.087590754367383  9.9850228102091  54.28564598213283  17.153194096762583  22.16757472221369  61.239129718374826  63.23707860338037  -22.333409415754335  19.456600337452237  0.000000
1.32  0.000000  0.000000  0.000000  -29.927531100951082  6.081211717907908  10.430784074238103  54.27845838949612  16.66927494026611  21.036886511274805  60.559761390611776  62.7532823709296  -24.139435805807032  19.614843054944277  0.000000
1.36  0.000000  0.000000  0.000000  -30.016947022396028  6.036582386027054  10.986220250603376  54.30649544892594  16.14508185373561  19.753765346183695  59.97318959800363  62.09406365257024  -26.42762279592094  19.832788518465684  0.000000
1.4000000000000001  0.000000  0.000000  0.000000  -30.195257730755504  5.928799828094864  11.635067264433925  54.40180810395936  15.624316805700687  18.30550774920393  59.493671268612296  61.25397974716503  -29.133524535404845  20.12221724424471  0.000000
1.44  0.000000  0.000000  0.000000  -30.41825888047832  5.7453455364977195  12.346790925862667  54.56500979617703  15.114120600165968  16.712495197570963  59.08481074773683  60.2342279831499  -32.160261432113735  20.47994978828975  0.000000
1.48  0.000000  0.000000  0.000000  -30.63815149037782  5.512794244893272  13.073860403940317  54.77630483687748  14.597271996995243  15.04679233812505  58.7148465596649  59.06761550357556  -35.42835603082852  20.925390459409332  0.000000
1.52  0.000000  0.000000  0.000000  -30.83408683415621  5.256488847073905  13.799376871279584  55.02411390425598  14.078481639382082  13.358499894199143  58.403806257125424  57.805044143266976  -38.85166086144587  21.506100693698876  0.000000
1.56  0.000000  0.000000  0.000000  -30.972221725795986  4.990575637126978  14.482478499313691  55.28486953810878  13.564237093216443  11.72425849872063  58.15897623674538  56.4960380483385  -42.288551379252134  22.1694683513166  0.000000
1.6  0.000000  0.000000  0.000000  -31.026475917098793  4.729208126120504  15.096224854649181  55.5155225398324  13.054312934827424  10.205927226813085  58.000002486868915  55.17585812750942  -45.59646488824086  22.80850959663939  0.000000
1.6400000000000001  0.000000  0.000000  0.000000  -31.018403994983572  4.47703007227461  15.647422446608324  55.711462036604054  12.561875987086028  8.80175444263725  57.94740622853285  53.90814632877188  -48.608037123865316  23.36359798466029  0.000000
1.68  0.000000  0.000000  0.000000  -30.9632406453595  4.234872127313225  16.1382002407002  55.887541408788344  12.091651123383446  7.5180451287222425  58.00270065093728  52.7566687852216  -51.20237172633387  23.781807795952734  0.000000
1.72  0.000000  0.000000  0.000000  -30.873304716721666  4.005210573770547  16.576803969457135  56.052594850439235  11.649655658907278  6.376485841643097  58.14514518273854  51.75092150517879  -53.33856846306007  24.02561968354002  0.000000
1.76  0.000000  0.000000  0.000000  -30.746611897531064  3.78695210358937  16.960589406384354  56.20714752024203  11.240321929949763  5.401128255564056  58.331472661889876  50.89171208797424  -55.03675288671576  24.095582212245837  0.000000
1.8  0.000000  0.000000  0.000000  -30.59492446373508  3.582778447170634  17.300219309549785  56.35895040312218  10.86625951766335  4.605801493058997  58.52508387088965  50.1658033484625  -56.35941922835008  24.016771321605823  0.000000
1.84  0.000000  0.000000  0.000000  -30.429251864426192  3.3950638339313  17.588069927464318  56.50654082457557  10.539313241742581  3.9879717352339523  58.713525582545564  49.57037471704323  -57.379774274642045  23.8336411748588  0.000000
1.8800000000000001  0.000000  0.000000  0.000000  -30.281254500953207  3.2320984069899987  17.82228263945211  56.64650263422101  10.274243146119677  3.526279546189436  58.92021981494041  49.10729641148347  -58.20207356320017  23.595314726453317  0.000000
1.92  0.000000  0.000000  0.000000  -30.171382953254376  3.1008564386755566  18.001996455554906  56.766695078392445  10.075345642681322  3.1819481232479703  59.18719295870209  48.77468709036033  -58.93539981685973  23.354126910564485  0.000000
